File size : 1.58 GiB
Duration : 1h 47mn
Overall bit rate : 2 107 Kbps

Video
ID : 0
Format : MPEG-4 Visual
Format profile : Advanced Simple@L5
Format settings, BVOP : 2
Format settings, QPel : No
Format settings, GMC : No warppoints
Format settings, Matrix : Default (H.263)
Codec ID : XVID
Codec ID/Hint : XviD
Duration : 1h 47mn
Bit rate : 1 652 Kbps
Width : 720 pixels
Height : 304 pixels
Display aspect ratio : 2.35:1
Frame rate : 24.000 fps
Color space : YUV
Chroma subsampling : 4:2:0
Bit depth : 8 bits
Scan type : Progressive
Compression mode : Lossy
Bits/(Pixel*Frame) : 0.314
Stream size : 1.23 GiB (78%)
Writing library : XviD 1.2.1 (UTC 2008-12-04)

Audio
ID : 1
Format : AC-3
Format/Info : Audio Coding 3
Mode extension : CM (complete main)
Format settings, Endianness : Big
Codec ID : 2000
Duration : 1h 47mn
Bit rate mode : Constant
Bit rate : 448 Kbps
Channel(s) : 6 channels
Channel positions : Front: L C R, Side: L R, LFE
Sampling rate : 48.0 KHz
Bit depth : 16 bits
Compression mode : Lossy
Stream size : 343 MiB (21%)
Alignment : Aligned on interleaves
Interleave, duration : 64 ms (1.54 video frames)
Interleave, preload duration : 192 ms
Title : Last.Stand.2013.D.BDRip.720p-Lum1x- - [1] English



IMDBhttp://www.imdb.com/title/tt1549920/

source &gt;&gt;&gt;&gt;&gt;&gt;as above ...many thanks.. real sweet&gt; support the source !!.

sample provided



 
http://imgbox.com/g/SHYTIFsHYR